{"title":"Storage Wars Texas S03E25 HDTV XviD-AFG [P2PDL]","uid":9394332,"size":221360341,"categoryP":"video","categoryS":"tv_shows","magnet":"?xt=urn:btih:25f3fb1c37180a52ad02147f685453435dedf06f&amp;dn=Storage+Wars+Texas+S03E25+HDTV+XviD-AFG+%5BP2PDL%5D&amp;tr=udp%3A%2F%2Ftracker.openbittorrent.com%3A80&amp;tr=udp%3A%2F%2Fopen.demonii.com%3A1337&amp;tr=udp%3A%2F%2Ftracker.coppersurfer.tk%3A6969&amp;tr=udp%3A%2F%2Fexodus.desync.com%3A6969","seeders":0,"leechers":2,"uploader":"ValidusVyto","files":3,"time":1387951359,"description":"Storage.Wars.Texas.S03E25.HDTV.XviD-AFG\n\nInfo:\nGeneral\nComplete name                            : Storage.Wars.Texas.S03E25.HDTV.XviD-AFG.[P2PDL]/Storage.Wars.Texas.S03E25.HDTV.XviD-AFG.avi\nFormat                                   : AVI\nFormat/Info                              : Audio Video Interleave\nFile size                                : 211 MiB\nDuration                                 : 21mn 9s\nOverall bit rate mode                    : Variable\nOverall bit rate                         : 1 394 Kbps\n\nVideo\nID                                       : 0\nFormat                                   : MPEG-4 Visual\nFormat profile                           : Advanced Simple@L5\nFormat settings, BVOP                    : 2\nFormat settings, QPel                    : No\nFormat settings, GMC                     : No warppoints\nFormat settings, Matrix                  : Default (H.263)\nCodec ID                                 : XVID\nCodec ID/Hint                            : XviD\nDuration                                 : 21mn 9s\nBit rate                                 : 1 253 Kbps\nWidth                                    : 640 pixels\nHeight                                   : 360 pixels\nDisplay aspect ratio                     : 16:9\nFrame rate                               : 29.970 fps\nColor space                              : YUV\nChroma subsampling                       : 4:2:0\nBit depth                                : 8 bits\nScan type                                : Progressive\nCompression mode                         : Lossy\nBits/(Pixel*Frame)                       : 0.181\nStream size                              : 190 MiB (90%)\nWriting library                          : XviD 64\n\nAudio\nID                                       : 1\nFormat                                   : MPEG Audio\nFormat version                           : Version 1\nFormat profile                           : Layer 3\nMode                                     : Joint stereo\nMode extension                           : MS Stereo\nCodec ID                                 : 55\nCodec ID/Hint                            : MP3\nDuration                                 : 21mn 9s\nBit rate mode                            : Variable\nBit rate                                 : 128 Kbps\nChannel(s)                               : 2 channels\nSampling rate                            : 48.0 KHz\nCompression mode                         : Lossy\nStream size                              : 19.4 MiB (9%)\nAlignment                                : Aligned on interleaves\nInterleave, duration                     : 24 ms (0.72 video frame)\nInterleave, preload duration             : 178 ms\nTitle                                    : Storage.Wars.Texas.S03E25.HDTV.XviD-AFG_360p.audio\n\n\n\n\nScreenshots: &lt;a href=&quot;\nhttp://beeimg.com/images/l72174442781.jpg&quot; rel=&quot;nofollow&quot; target=&quot;_NEW&quot;&gt;\nhttp://beeimg.com/images/l72174442781.jpg&lt;/a&gt; &lt;a href=&quot;\nhttp://beeimg.com/images/q43433484202.jpg&quot; rel=&quot;nofollow&quot; target=&quot;_NEW&quot;&gt;\nhttp://beeimg.com/images/q43433484202.jpg&lt;/a&gt;","torrent":{"xt":"urn:btih:25f3fb1c37180a52ad02147f685453435dedf06f","amp;dn":"Storage+Wars+Texas+S03E25+HDTV+XviD-AFG+%5BP2PDL%5D","amp;tr":["udp%3A%2F%2Ftracker.openbittorrent.com%3A80","udp%3A%2F%2Fopen.demonii.com%3A1337","udp%3A%2F%2Ftracker.coppersurfer.tk%3A6969","udp%3A%2F%2Fexodus.desync.com%3A6969"],"infoHash":"25f3fb1c37180a52ad02147f685453435dedf06f","infoHashBuffer":{"type":"Buffer","data":[37,243,251,28,55,24,10,82,173,2,20,127,104,84,83,67,93,237,240,111]},"announce":[],"urlList":[]}}